<?xml version="1.0" encoding="UTF-8" standalone="no"?>
<!DOCTYPE svg PUBLIC "-//W3C//DTD SVG 1.1//EN" "http://www.w3.org/Graphics/SVG/1.1/DTD/svg11.dtd">
<svg xmlns="http://www.w3.org/2000/svg" version="1.1" viewBox="0.00 0.00 2000.00 460.00">
<g stroke-width="2.00" fill="none" stroke-linecap="butt">
<path stroke="#b0b0b0" vector-effect="non-scaling-stroke" d="
  M 942.18 123.17
  C 939.17 131.12 935.54 138.89 932.50 146.89
  Q 930.76 151.49 928.90 156.21
  Q 927.88 158.80 928.47 161.00
  Q 929.17 163.59 931.01 165.92
  Q 957.20 199.04 983.32 232.28
  Q 984.80 234.16 987.08 233.88
  C 994.48 232.97 1002.24 230.87 1010.27 229.56
  Q 1029.29 226.44 1046.48 223.01
  Q 1061.66 219.99 1070.75 218.92
  Q 1075.70 218.33 1077.17 214.71
  Q 1085.34 194.56 1093.68 173.59
  C 1096.85 165.62 1100.56 157.95 1103.39 149.69
  Q 1105.24 144.30 1107.61 139.31
  Q 1109.06 136.25 1107.46 134.03
  Q 1095.31 117.30 1081.76 97.70
  Q 1070.24 81.04 1054.14 59.09
  Q 1052.50 56.85 1050.38 55.23
  A 1.60 1.58 -34.1 0 0 1048.98 54.97
  Q 1020.52 62.93 1000.22 68.11
  C 987.54 71.35 975.10 75.20 962.48 78.23
  Q 960.43 78.72 959.63 80.38
  Q 956.20 87.55 951.96 98.56
  C 948.78 106.81 945.36 114.80 942.18 123.17"
/>
<path stroke="#b0b0b0" vector-effect="non-scaling-stroke" d="
  M 1188.23 298.45
  L 1188.22 259.99
  Q 1188.22 259.50 1187.73 259.51
  L 1184.43 259.58
  Q 1183.98 259.59 1183.98 260.04
  Q 1184.08 302.14 1183.99 342.50
  Q 1183.97 349.52 1184.24 357.18
  A 2.01 2.01 0.0 0 0 1186.54 359.10
  L 1186.83 359.06
  Q 1188.26 358.86 1188.25 357.42
  L 1188.17 350.07
  Q 1188.16 348.25 1189.27 349.68
  Q 1194.60 356.50 1201.26 358.61
  C 1205.41 359.93 1210.36 359.94 1214.72 359.69
  C 1229.64 358.82 1236.35 343.84 1237.38 330.83
  C 1238.49 316.66 1237.45 296.58 1222.23 289.62
  Q 1217.19 287.31 1209.80 287.47
  Q 1200.19 287.66 1193.12 293.95
  C 1191.43 295.46 1190.56 297.30 1188.83 298.73
  A 0.37 0.36 -19.8 0 1 1188.23 298.45"
/>
<path stroke="#b0b0b0" vector-effect="non-scaling-stroke" d="
  M 1001.60 343.71
  C 989.56 342.35 981.25 332.96 978.77 321.17
  C 976.04 308.26 978.42 292.60 990.05 284.55
  C 999.93 277.71 1011.92 277.00 1022.53 283.11
  Q 1024.85 284.45 1027.28 285.86
  Q 1030.26 287.60 1032.44 284.93
  L 1039.38 276.42
  A 0.55 0.55 0.0 0 0 1039.31 275.66
  Q 1033.48 270.64 1026.03 266.84
  C 1019.66 263.58 1012.23 263.23 1004.98 263.31
  Q 990.70 263.46 979.52 270.97
  C 961.72 282.92 957.73 300.07 959.66 320.37
  Q 960.63 330.53 966.89 340.86
  C 973.14 351.18 986.74 358.80 998.69 359.22
  Q 1004.82 359.43 1010.94 359.26
  C 1020.68 358.99 1029.19 354.27 1036.79 347.88
  C 1038.03 346.84 1038.77 345.33 1037.74 343.79
  C 1036.07 341.29 1030.77 333.95 1027.24 336.19
  C 1022.97 338.89 1019.02 342.20 1014.15 343.26
  Q 1008.53 344.49 1001.60 343.71"
/>
<path stroke="#b0b0b0" vector-effect="non-scaling-stroke" d="
  M 1054.23 354.75
  A 0.52 0.51 -0.0 0 1 1053.71 354.24
  Q 1053.73 317.16 1053.69 283.40
  Q 1053.68 274.55 1053.42 265.58
  Q 1053.38 264.34 1052.16 264.18
  L 1050.83 264.00
  Q 1049.48 263.82 1049.48 265.18
  L 1049.47 358.45
  A 0.48 0.48 0.0 0 0 1049.95 358.93
  L 1100.22 358.94
  Q 1100.87 358.94 1100.88 358.29
  L 1100.93 355.40
  A 0.65 0.65 0.0 0 0 1100.28 354.75
  L 1054.23 354.75"
/>
<path stroke="#b0b0b0" vector-effect="non-scaling-stroke" d="
  M 787.25 318.27
  A 0.48 0.48 0.0 0 1 787.73 317.79
  L 819.45 317.77
  A 0.47 0.47 0.0 0 0 819.92 317.30
  L 819.92 304.73
  A 0.45 0.44 90.0 0 0 819.48 304.28
  L 788.02 304.33
  Q 787.21 304.33 787.21 303.52
  L 787.28 279.55
  A 0.92 0.92 0.0 0 1 788.20 278.63
  L 828.52 278.59
  Q 828.88 278.59 828.88 278.23
  L 828.81 264.54
  Q 828.81 264.27 828.54 264.27
  L 769.74 264.28
  A 0.23 0.23 0.0 0 0 769.51 264.51
  L 769.50 358.50
  A 0.50 0.50 0.0 0 0 770.00 359.00
  L 828.29 359.00
  Q 828.84 359.00 828.84 358.46
  L 828.84 346.02
  A 2.32 2.32 0.0 0 0 826.52 343.70
  L 788.23 343.72
  A 0.99 0.99 0.0 0 1 787.24 342.72
  L 787.25 318.27"
/>
<path stroke="#b0b0b0" vector-effect="non-scaling-stroke" d="
  M 863.50 325.70
  C 872.76 325.56 881.61 326.20 890.61 323.28
  Q 909.84 317.02 910.59 296.26
  C 910.80 290.35 910.07 282.08 906.24 277.25
  C 899.90 269.26 891.34 265.36 881.26 264.66
  C 868.48 263.77 855.47 264.23 843.91 264.31
  Q 843.42 264.31 843.42 264.81
  L 843.42 358.45
  Q 843.42 358.99 843.95 358.99
  L 860.75 359.02
  Q 861.28 359.02 861.28 358.49
  L 861.28 327.95
  A 2.25 2.25 0.0 0 1 863.50 325.70"
/>
<path stroke="#b0b0b0" vector-effect="non-scaling-stroke" d="
  M 944.17 264.62
  A 0.36 0.36 0.0 0 0 943.81 264.26
  L 926.61 264.26
  A 0.36 0.36 0.0 0 0 926.25 264.62
  L 926.25 358.62
  A 0.36 0.36 0.0 0 0 926.61 358.98
  L 943.81 358.98
  A 0.36 0.36 0.0 0 0 944.17 358.62
  L 944.17 264.62"
/>
<path stroke="#b0b0b0" vector-effect="non-scaling-stroke" d="
  M 1158.16 348.40
  Q 1159.47 352.15 1159.06 356.27
  C 1158.87 358.20 1160.36 358.94 1162.05 359.15
  A 1.83 1.82 84.3 0 0 1164.00 356.77
  Q 1163.44 355.08 1162.96 353.34
  Q 1162.47 351.54 1162.46 349.52
  Q 1162.43 333.55 1162.56 316.16
  Q 1162.61 309.52 1161.98 304.49
  C 1160.06 289.31 1142.15 285.48 1129.98 288.21
  C 1122.00 290.00 1110.81 297.62 1112.17 307.12
  Q 1112.27 307.79 1112.71 308.31
  Q 1113.48 309.24 1114.82 308.53
  A 1.65 1.64 82.9 0 0 1115.67 307.43
  C 1118.80 294.08 1129.88 290.89 1142.11 292.11
  Q 1150.46 292.94 1154.76 298.44
  C 1158.76 303.56 1158.53 312.21 1158.12 318.25
  A 0.87 0.87 0.0 0 1 1157.25 319.06
  C 1147.75 319.03 1137.88 318.97 1128.80 320.65
  C 1121.93 321.92 1113.01 327.05 1110.82 334.46
  C 1107.09 347.10 1114.12 358.36 1127.44 359.51
  C 1134.22 360.10 1141.29 359.57 1147.67 356.49
  C 1151.71 354.53 1154.15 351.24 1157.21 348.18
  A 0.58 0.57 58.0 0 1 1158.16 348.40"
/>
<path stroke="#b0b0b0" vector-effect="non-scaling-stroke" d="
  M 1039.46 103.52
  Q 1051.56 107.44 1061.77 111.01
  Q 1067.03 112.84 1072.85 114.20
  Q 1074.36 114.55 1073.67 113.17
  Q 1066.43 98.60 1058.07 82.51
  C 1054.71 76.03 1052.06 69.44 1048.04 63.21
  Q 1047.77 62.79 1047.33 63.01
  L 996.81 88.04
  Q 994.34 89.26 997.00 89.97
  C 1011.42 93.82 1025.17 98.89 1039.46 103.52"
/>
<path stroke="#b0b0b0" vector-effect="non-scaling-stroke" d="
  M 1005.99 75.96
  Q 1011.04 73.70 1016.06 71.18
  Q 1016.13 71.14 1016.10 71.06
  L 1016.00 70.81
  Q 1015.83 70.41 1015.42 70.54
  Q 999.44 75.78 983.02 79.51
  C 980.68 80.04 978.78 81.00 976.54 81.51
  Q 974.35 82.02 976.46 82.79
  Q 979.80 84.02 984.23 85.12
  C 986.30 85.63 987.72 85.01 989.55 84.09
  C 995.11 81.31 1000.39 78.48 1005.99 75.96"
/>
<path stroke="#b0b0b0" vector-effect="non-scaling-stroke" d="
  M 959.90 97.15
  C 954.35 110.95 948.29 124.60 943.29 138.50
  Q 943.25 138.63 943.37 138.68
  L 943.38 138.68
  Q 943.51 138.74 943.57 138.61
  Q 944.19 137.31 945.09 136.17
  Q 962.64 113.91 979.89 92.09
  A 0.80 0.79 -60.1 0 0 979.56 90.86
  Q 972.81 88.23 965.55 86.27
  A 1.66 1.65 -70.3 0 0 963.61 87.20
  C 962.16 90.47 961.21 93.89 959.90 97.15"
/>
<path stroke="#b0b0b0" vector-effect="non-scaling-stroke" d="
  M 1073.75 122.51
  A 0.38 0.38 0.0 0 0 1073.64 121.85
  L 991.72 94.86
  A 0.38 0.38 0.0 0 0 991.23 95.33
  L 1011.80 169.35
  A 0.38 0.38 0.0 0 0 1012.40 169.55
  L 1073.75 122.51"
/>
<path stroke="#b0b0b0" vector-effect="non-scaling-stroke" d="
  M 937.97 156.46
  A 1.07 1.07 0.0 0 0 938.60 158.17
  L 1003.42 171.06
  A 1.07 1.07 0.0 0 0 1004.67 169.73
  L 985.32 98.66
  A 1.07 1.07 0.0 0 0 983.45 98.28
  L 937.97 156.46"
/>
<path stroke="#b0b0b0" vector-effect="non-scaling-stroke" d="
  M 1080.64 111.85
  C 1083.85 117.74 1085.09 120.73 1090.22 122.77
  Q 1090.99 123.08 1090.55 122.37
  Q 1084.62 112.77 1076.10 101.85
  A 0.74 0.73 68.0 0 0 1075.45 101.57
  L 1075.20 101.60
  Q 1074.94 101.62 1075.07 101.84
  Q 1077.88 106.79 1080.64 111.85"
/>
<path stroke="#b0b0b0" vector-effect="non-scaling-stroke" d="
  M 1088.59 168.00
  Q 1090.82 161.82 1093.24 156.54
  C 1095.93 150.72 1097.90 144.77 1100.69 139.08
  A 1.47 1.47 0.0 0 0 1100.12 137.17
  Q 1093.43 133.22 1087.20 128.36
  C 1086.69 127.96 1085.77 127.63 1085.15 127.44
  A 0.76 0.76 0.0 0 0 1084.17 128.11
  C 1083.48 136.71 1082.62 145.30 1082.09 153.88
  Q 1081.15 169.04 1079.31 183.77
  C 1078.96 186.58 1078.27 189.32 1078.45 192.19
  Q 1078.57 194.15 1079.33 192.33
  Q 1080.95 188.43 1082.23 184.44
  C 1084.03 178.86 1086.58 173.60 1088.59 168.00"
/>
<path stroke="#b0b0b0" vector-effect="non-scaling-stroke" d="
  M 1016.66 175.99
  L 1070.30 208.96
  A 0.25 0.25 0.0 0 0 1070.68 208.76
  Q 1072.84 181.88 1075.10 152.38
  Q 1075.84 142.71 1077.49 131.26
  Q 1077.64 130.19 1077.35 128.99
  A 0.78 0.78 0.0 0 0 1076.01 128.65
  Q 1074.30 130.53 1072.41 131.97
  Q 1047.22 151.04 1020.71 171.71
  Q 1018.68 173.29 1016.64 174.63
  Q 1015.57 175.33 1016.66 175.99"
/>
<path stroke="#b0b0b0" vector-effect="non-scaling-stroke" d="
  M 987.30 219.80
  C 993.09 205.61 998.88 192.88 1004.69 179.55
  A 1.04 1.04 0.0 0 0 1003.96 178.12
  C 993.41 175.79 983.05 173.47 972.43 171.73
  Q 959.28 169.57 943.11 165.67
  Q 941.77 165.34 940.21 165.51
  A 0.53 0.53 0.0 0 0 939.86 166.36
  C 953.76 183.91 967.70 201.78 981.39 218.87
  C 982.59 220.38 984.06 221.57 984.78 223.38
  Q 985.02 223.97 985.37 223.44
  Q 986.57 221.59 987.30 219.80"
/>
<path stroke="#b0b0b0" vector-effect="non-scaling-stroke" d="
  M 992.15 224.95
  A 0.71 0.71 0.0 0 0 992.93 225.93
  L 1062.15 213.34
  A 0.71 0.71 0.0 0 0 1062.39 212.04
  L 1012.30 181.16
  A 0.71 0.71 0.0 0 0 1011.28 181.48
  L 992.15 224.95"
/>
<path stroke="#b0b0b0" vector-effect="non-scaling-stroke" d="
  M 1209.23 355.74
  C 1223.34 356.82 1231.51 345.16 1232.80 332.50
  Q 1233.95 321.15 1232.15 311.20
  C 1231.30 306.56 1228.98 301.99 1226.14 298.21
  C 1221.55 292.11 1214.11 291.42 1206.83 292.08
  Q 1201.10 292.61 1197.88 295.28
  C 1193.94 298.56 1190.36 302.69 1189.00 307.77
  Q 1188.22 310.73 1188.20 314.89
  Q 1188.15 327.26 1188.36 338.51
  Q 1188.46 344.02 1192.93 348.17
  Q 1200.34 355.05 1209.23 355.74"
/>
<path stroke="#b0b0b0" vector-effect="non-scaling-stroke" d="
  M 861.27 279.25
  L 861.27 310.63
  A 0.62 0.62 0.0 0 0 861.89 311.25
  L 876.24 311.25
  A 16.67 15.48 -0.0 0 0 892.91 295.77
  L 892.91 294.11
  A 16.67 15.48 0.0 0 0 876.24 278.63
  L 861.89 278.63
  A 0.62 0.62 0.0 0 0 861.27 279.25"
/>
<path stroke="#b0b0b0" vector-effect="non-scaling-stroke" d="
  M 1124.78 327.02
  C 1115.14 330.99 1109.80 342.10 1118.48 350.51
  C 1126.78 358.55 1140.64 356.66 1149.06 350.34
  C 1152.87 347.48 1155.85 344.63 1157.54 340.10
  Q 1158.46 337.61 1158.30 332.65
  Q 1158.15 328.23 1158.22 324.27
  Q 1158.24 323.33 1157.30 323.33
  C 1145.99 323.29 1135.15 322.74 1124.78 327.02"
/>
</g>
<path fill="#606060" d="
  M 0.00 0.00
  L 2000.00 0.00
  L 2000.00 460.00
  L 0.00 460.00
  L 0.00 0.00
  Z
  M 942.18 123.17
  C 939.17 131.12 935.54 138.89 932.50 146.89
  Q 930.76 151.49 928.90 156.21
  Q 927.88 158.80 928.47 161.00
  Q 929.17 163.59 931.01 165.92
  Q 957.20 199.04 983.32 232.28
  Q 984.80 234.16 987.08 233.88
  C 994.48 232.97 1002.24 230.87 1010.27 229.56
  Q 1029.29 226.44 1046.48 223.01
  Q 1061.66 219.99 1070.75 218.92
  Q 1075.70 218.33 1077.17 214.71
  Q 1085.34 194.56 1093.68 173.59
  C 1096.85 165.62 1100.56 157.95 1103.39 149.69
  Q 1105.24 144.30 1107.61 139.31
  Q 1109.06 136.25 1107.46 134.03
  Q 1095.31 117.30 1081.76 97.70
  Q 1070.24 81.04 1054.14 59.09
  Q 1052.50 56.85 1050.38 55.23
  A 1.60 1.58 -34.1 0 0 1048.98 54.97
  Q 1020.52 62.93 1000.22 68.11
  C 987.54 71.35 975.10 75.20 962.48 78.23
  Q 960.43 78.72 959.63 80.38
  Q 956.20 87.55 951.96 98.56
  C 948.78 106.81 945.36 114.80 942.18 123.17
  Z
  M 1188.23 298.45
  L 1188.22 259.99
  Q 1188.22 259.50 1187.73 259.51
  L 1184.43 259.58
  Q 1183.98 259.59 1183.98 260.04
  Q 1184.08 302.14 1183.99 342.50
  Q 1183.97 349.52 1184.24 357.18
  A 2.01 2.01 0.0 0 0 1186.54 359.10
  L 1186.83 359.06
  Q 1188.26 358.86 1188.25 357.42
  L 1188.17 350.07
  Q 1188.16 348.25 1189.27 349.68
  Q 1194.60 356.50 1201.26 358.61
  C 1205.41 359.93 1210.36 359.94 1214.72 359.69
  C 1229.64 358.82 1236.35 343.84 1237.38 330.83
  C 1238.49 316.66 1237.45 296.58 1222.23 289.62
  Q 1217.19 287.31 1209.80 287.47
  Q 1200.19 287.66 1193.12 293.95
  C 1191.43 295.46 1190.56 297.30 1188.83 298.73
  A 0.37 0.36 -19.8 0 1 1188.23 298.45
  Z
  M 1001.60 343.71
  C 989.56 342.35 981.25 332.96 978.77 321.17
  C 976.04 308.26 978.42 292.60 990.05 284.55
  C 999.93 277.71 1011.92 277.00 1022.53 283.11
  Q 1024.85 284.45 1027.28 285.86
  Q 1030.26 287.60 1032.44 284.93
  L 1039.38 276.42
  A 0.55 0.55 0.0 0 0 1039.31 275.66
  Q 1033.48 270.64 1026.03 266.84
  C 1019.66 263.58 1012.23 263.23 1004.98 263.31
  Q 990.70 263.46 979.52 270.97
  C 961.72 282.92 957.73 300.07 959.66 320.37
  Q 960.63 330.53 966.89 340.86
  C 973.14 351.18 986.74 358.80 998.69 359.22
  Q 1004.82 359.43 1010.94 359.26
  C 1020.68 358.99 1029.19 354.27 1036.79 347.88
  C 1038.03 346.84 1038.77 345.33 1037.74 343.79
  C 1036.07 341.29 1030.77 333.95 1027.24 336.19
  C 1022.97 338.89 1019.02 342.20 1014.15 343.26
  Q 1008.53 344.49 1001.60 343.71
  Z
  M 1054.23 354.75
  A 0.52 0.51 -0.0 0 1 1053.71 354.24
  Q 1053.73 317.16 1053.69 283.40
  Q 1053.68 274.55 1053.42 265.58
  Q 1053.38 264.34 1052.16 264.18
  L 1050.83 264.00
  Q 1049.48 263.82 1049.48 265.18
  L 1049.47 358.45
  A 0.48 0.48 0.0 0 0 1049.95 358.93
  L 1100.22 358.94
  Q 1100.87 358.94 1100.88 358.29
  L 1100.93 355.40
  A 0.65 0.65 0.0 0 0 1100.28 354.75
  L 1054.23 354.75
  Z
  M 787.25 318.27
  A 0.48 0.48 0.0 0 1 787.73 317.79
  L 819.45 317.77
  A 0.47 0.47 0.0 0 0 819.92 317.30
  L 819.92 304.73
  A 0.45 0.44 90.0 0 0 819.48 304.28
  L 788.02 304.33
  Q 787.21 304.33 787.21 303.52
  L 787.28 279.55
  A 0.92 0.92 0.0 0 1 788.20 278.63
  L 828.52 278.59
  Q 828.88 278.59 828.88 278.23
  L 828.81 264.54
  Q 828.81 264.27 828.54 264.27
  L 769.74 264.28
  A 0.23 0.23 0.0 0 0 769.51 264.51
  L 769.50 358.50
  A 0.50 0.50 0.0 0 0 770.00 359.00
  L 828.29 359.00
  Q 828.84 359.00 828.84 358.46
  L 828.84 346.02
  A 2.32 2.32 0.0 0 0 826.52 343.70
  L 788.23 343.72
  A 0.99 0.99 0.0 0 1 787.24 342.72
  L 787.25 318.27
  Z
  M 863.50 325.70
  C 872.76 325.56 881.61 326.20 890.61 323.28
  Q 909.84 317.02 910.59 296.26
  C 910.80 290.35 910.07 282.08 906.24 277.25
  C 899.90 269.26 891.34 265.36 881.26 264.66
  C 868.48 263.77 855.47 264.23 843.91 264.31
  Q 843.42 264.31 843.42 264.81
  L 843.42 358.45
  Q 843.42 358.99 843.95 358.99
  L 860.75 359.02
  Q 861.28 359.02 861.28 358.49
  L 861.28 327.95
  A 2.25 2.25 0.0 0 1 863.50 325.70
  Z
  M 944.17 264.62
  A 0.36 0.36 0.0 0 0 943.81 264.26
  L 926.61 264.26
  A 0.36 0.36 0.0 0 0 926.25 264.62
  L 926.25 358.62
  A 0.36 0.36 0.0 0 0 926.61 358.98
  L 943.81 358.98
  A 0.36 0.36 0.0 0 0 944.17 358.62
  L 944.17 264.62
  Z
  M 1158.16 348.40
  Q 1159.47 352.15 1159.06 356.27
  C 1158.87 358.20 1160.36 358.94 1162.05 359.15
  A 1.83 1.82 84.3 0 0 1164.00 356.77
  Q 1163.44 355.08 1162.96 353.34
  Q 1162.47 351.54 1162.46 349.52
  Q 1162.43 333.55 1162.56 316.16
  Q 1162.61 309.52 1161.98 304.49
  C 1160.06 289.31 1142.15 285.48 1129.98 288.21
  C 1122.00 290.00 1110.81 297.62 1112.17 307.12
  Q 1112.27 307.79 1112.71 308.31
  Q 1113.48 309.24 1114.82 308.53
  A 1.65 1.64 82.9 0 0 1115.67 307.43
  C 1118.80 294.08 1129.88 290.89 1142.11 292.11
  Q 1150.46 292.94 1154.76 298.44
  C 1158.76 303.56 1158.53 312.21 1158.12 318.25
  A 0.87 0.87 0.0 0 1 1157.25 319.06
  C 1147.75 319.03 1137.88 318.97 1128.80 320.65
  C 1121.93 321.92 1113.01 327.05 1110.82 334.46
  C 1107.09 347.10 1114.12 358.36 1127.44 359.51
  C 1134.22 360.10 1141.29 359.57 1147.67 356.49
  C 1151.71 354.53 1154.15 351.24 1157.21 348.18
  A 0.58 0.57 58.0 0 1 1158.16 348.40
  Z"
/>
<path fill="#ffffff" d="
  M 942.18 123.17
  C 945.36 114.80 948.78 106.81 951.96 98.56
  Q 956.20 87.55 959.63 80.38
  Q 960.43 78.72 962.48 78.23
  C 975.10 75.20 987.54 71.35 1000.22 68.11
  Q 1020.52 62.93 1048.98 54.97
  A 1.60 1.58 -34.1 0 1 1050.38 55.23
  Q 1052.50 56.85 1054.14 59.09
  Q 1070.24 81.04 1081.76 97.70
  Q 1095.31 117.30 1107.46 134.03
  Q 1109.06 136.25 1107.61 139.31
  Q 1105.24 144.30 1103.39 149.69
  C 1100.56 157.95 1096.85 165.62 1093.68 173.59
  Q 1085.34 194.56 1077.17 214.71
  Q 1075.70 218.33 1070.75 218.92
  Q 1061.66 219.99 1046.48 223.01
  Q 1029.29 226.44 1010.27 229.56
  C 1002.24 230.87 994.48 232.97 987.08 233.88
  Q 984.80 234.16 983.32 232.28
  Q 957.20 199.04 931.01 165.92
  Q 929.17 163.59 928.47 161.00
  Q 927.88 158.80 928.90 156.21
  Q 930.76 151.49 932.50 146.89
  C 935.54 138.89 939.17 131.12 942.18 123.17
  Z
  M 1039.46 103.52
  Q 1051.56 107.44 1061.77 111.01
  Q 1067.03 112.84 1072.85 114.20
  Q 1074.36 114.55 1073.67 113.17
  Q 1066.43 98.60 1058.07 82.51
  C 1054.71 76.03 1052.06 69.44 1048.04 63.21
  Q 1047.77 62.79 1047.33 63.01
  L 996.81 88.04
  Q 994.34 89.26 997.00 89.97
  C 1011.42 93.82 1025.17 98.89 1039.46 103.52
  Z
  M 1005.99 75.96
  Q 1011.04 73.70 1016.06 71.18
  Q 1016.13 71.14 1016.10 71.06
  L 1016.00 70.81
  Q 1015.83 70.41 1015.42 70.54
  Q 999.44 75.78 983.02 79.51
  C 980.68 80.04 978.78 81.00 976.54 81.51
  Q 974.35 82.02 976.46 82.79
  Q 979.80 84.02 984.23 85.12
  C 986.30 85.63 987.72 85.01 989.55 84.09
  C 995.11 81.31 1000.39 78.48 1005.99 75.96
  Z
  M 959.90 97.15
  C 954.35 110.95 948.29 124.60 943.29 138.50
  Q 943.25 138.63 943.37 138.68
  L 943.38 138.68
  Q 943.51 138.74 943.57 138.61
  Q 944.19 137.31 945.09 136.17
  Q 962.64 113.91 979.89 92.09
  A 0.80 0.79 -60.1 0 0 979.56 90.86
  Q 972.81 88.23 965.55 86.27
  A 1.66 1.65 -70.3 0 0 963.61 87.20
  C 962.16 90.47 961.21 93.89 959.90 97.15
  Z
  M 1073.75 122.51
  A 0.38 0.38 0.0 0 0 1073.64 121.85
  L 991.72 94.86
  A 0.38 0.38 0.0 0 0 991.23 95.33
  L 1011.80 169.35
  A 0.38 0.38 0.0 0 0 1012.40 169.55
  L 1073.75 122.51
  Z
  M 937.97 156.46
  A 1.07 1.07 0.0 0 0 938.60 158.17
  L 1003.42 171.06
  A 1.07 1.07 0.0 0 0 1004.67 169.73
  L 985.32 98.66
  A 1.07 1.07 0.0 0 0 983.45 98.28
  L 937.97 156.46
  Z
  M 1080.64 111.85
  C 1083.85 117.74 1085.09 120.73 1090.22 122.77
  Q 1090.99 123.08 1090.55 122.37
  Q 1084.62 112.77 1076.10 101.85
  A 0.74 0.73 68.0 0 0 1075.45 101.57
  L 1075.20 101.60
  Q 1074.94 101.62 1075.07 101.84
  Q 1077.88 106.79 1080.64 111.85
  Z
  M 1088.59 168.00
  Q 1090.82 161.82 1093.24 156.54
  C 1095.93 150.72 1097.90 144.77 1100.69 139.08
  A 1.47 1.47 0.0 0 0 1100.12 137.17
  Q 1093.43 133.22 1087.20 128.36
  C 1086.69 127.96 1085.77 127.63 1085.15 127.44
  A 0.76 0.76 0.0 0 0 1084.17 128.11
  C 1083.48 136.71 1082.62 145.30 1082.09 153.88
  Q 1081.15 169.04 1079.31 183.77
  C 1078.96 186.58 1078.27 189.32 1078.45 192.19
  Q 1078.57 194.15 1079.33 192.33
  Q 1080.95 188.43 1082.23 184.44
  C 1084.03 178.86 1086.58 173.60 1088.59 168.00
  Z
  M 1016.66 175.99
  L 1070.30 208.96
  A 0.25 0.25 0.0 0 0 1070.68 208.76
  Q 1072.84 181.88 1075.10 152.38
  Q 1075.84 142.71 1077.49 131.26
  Q 1077.64 130.19 1077.35 128.99
  A 0.78 0.78 0.0 0 0 1076.01 128.65
  Q 1074.30 130.53 1072.41 131.97
  Q 1047.22 151.04 1020.71 171.71
  Q 1018.68 173.29 1016.64 174.63
  Q 1015.57 175.33 1016.66 175.99
  Z
  M 987.30 219.80
  C 993.09 205.61 998.88 192.88 1004.69 179.55
  A 1.04 1.04 0.0 0 0 1003.96 178.12
  C 993.41 175.79 983.05 173.47 972.43 171.73
  Q 959.28 169.57 943.11 165.67
  Q 941.77 165.34 940.21 165.51
  A 0.53 0.53 0.0 0 0 939.86 166.36
  C 953.76 183.91 967.70 201.78 981.39 218.87
  C 982.59 220.38 984.06 221.57 984.78 223.38
  Q 985.02 223.97 985.37 223.44
  Q 986.57 221.59 987.30 219.80
  Z
  M 992.15 224.95
  A 0.71 0.71 0.0 0 0 992.93 225.93
  L 1062.15 213.34
  A 0.71 0.71 0.0 0 0 1062.39 212.04
  L 1012.30 181.16
  A 0.71 0.71 0.0 0 0 1011.28 181.48
  L 992.15 224.95
  Z"
/>
<path fill="#606060" d="
  M 1039.46 103.52
  C 1025.17 98.89 1011.42 93.82 997.00 89.97
  Q 994.34 89.26 996.81 88.04
  L 1047.33 63.01
  Q 1047.77 62.79 1048.04 63.21
  C 1052.06 69.44 1054.71 76.03 1058.07 82.51
  Q 1066.43 98.60 1073.67 113.17
  Q 1074.36 114.55 1072.85 114.20
  Q 1067.03 112.84 1061.77 111.01
  Q 1051.56 107.44 1039.46 103.52
  Z"
/>
<path fill="#606060" d="
  M 1005.99 75.96
  C 1000.39 78.48 995.11 81.31 989.55 84.09
  C 987.72 85.01 986.30 85.63 984.23 85.12
  Q 979.80 84.02 976.46 82.79
  Q 974.35 82.02 976.54 81.51
  C 978.78 81.00 980.68 80.04 983.02 79.51
  Q 999.44 75.78 1015.42 70.54
  Q 1015.83 70.41 1016.00 70.81
  L 1016.10 71.06
  Q 1016.13 71.14 1016.06 71.18
  Q 1011.04 73.70 1005.99 75.96
  Z"
/>
<path fill="#606060" d="
  M 943.29 138.50
  C 948.29 124.60 954.35 110.95 959.90 97.15
  C 961.21 93.89 962.16 90.47 963.61 87.20
  A 1.66 1.65 -70.3 0 1 965.55 86.27
  Q 972.81 88.23 979.56 90.86
  A 0.80 0.79 -60.1 0 1 979.89 92.09
  Q 962.64 113.91 945.09 136.17
  Q 944.19 137.31 943.57 138.61
  Q 943.51 138.74 943.38 138.68
  L 943.37 138.68
  Q 943.25 138.63 943.29 138.50
  Z"
/>
<path fill="#606060" d="
  M 1073.75 122.51
  L 1012.40 169.55
  A 0.38 0.38 0.0 0 1 1011.80 169.35
  L 991.23 95.33
  A 0.38 0.38 0.0 0 1 991.72 94.86
  L 1073.64 121.85
  A 0.38 0.38 0.0 0 1 1073.75 122.51
  Z"
/>
<path fill="#606060" d="
  M 937.97 156.46
  L 983.45 98.28
  A 1.07 1.07 0.0 0 1 985.32 98.66
  L 1004.67 169.73
  A 1.07 1.07 0.0 0 1 1003.42 171.06
  L 938.60 158.17
  A 1.07 1.07 0.0 0 1 937.97 156.46
  Z"
/>
<path fill="#606060" d="
  M 1080.64 111.85
  Q 1077.88 106.79 1075.07 101.84
  Q 1074.94 101.62 1075.20 101.60
  L 1075.45 101.57
  A 0.74 0.73 68.0 0 1 1076.10 101.85
  Q 1084.62 112.77 1090.55 122.37
  Q 1090.99 123.08 1090.22 122.77
  C 1085.09 120.73 1083.85 117.74 1080.64 111.85
  Z"
/>
<path fill="#606060" d="
  M 1088.59 168.00
  C 1086.58 173.60 1084.03 178.86 1082.23 184.44
  Q 1080.95 188.43 1079.33 192.33
  Q 1078.57 194.15 1078.45 192.19
  C 1078.27 189.32 1078.96 186.58 1079.31 183.77
  Q 1081.15 169.04 1082.09 153.88
  C 1082.62 145.30 1083.48 136.71 1084.17 128.11
  A 0.76 0.76 0.0 0 1 1085.15 127.44
  C 1085.77 127.63 1086.69 127.96 1087.20 128.36
  Q 1093.43 133.22 1100.12 137.17
  A 1.47 1.47 0.0 0 1 1100.69 139.08
  C 1097.90 144.77 1095.93 150.72 1093.24 156.54
  Q 1090.82 161.82 1088.59 168.00
  Z"
/>
<path fill="#606060" d="
  M 1070.30 208.96
  L 1016.66 175.99
  Q 1015.57 175.33 1016.64 174.63
  Q 1018.68 173.29 1020.71 171.71
  Q 1047.22 151.04 1072.41 131.97
  Q 1074.30 130.53 1076.01 128.65
  A 0.78 0.78 0.0 0 1 1077.35 128.99
  Q 1077.64 130.19 1077.49 131.26
  Q 1075.84 142.71 1075.10 152.38
  Q 1072.84 181.88 1070.68 208.76
  A 0.25 0.25 0.0 0 1 1070.30 208.96
  Z"
/>
<path fill="#606060" d="
  M 1004.69 179.55
  C 998.88 192.88 993.09 205.61 987.30 219.80
  Q 986.57 221.59 985.37 223.44
  Q 985.02 223.97 984.78 223.38
  C 984.06 221.57 982.59 220.38 981.39 218.87
  C 967.70 201.78 953.76 183.91 939.86 166.36
  A 0.53 0.53 0.0 0 1 940.21 165.51
  Q 941.77 165.34 943.11 165.67
  Q 959.28 169.57 972.43 171.73
  C 983.05 173.47 993.41 175.79 1003.96 178.12
  A 1.04 1.04 0.0 0 1 1004.69 179.55
  Z"
/>
<path fill="#606060" d="
  M 992.15 224.95
  L 1011.28 181.48
  A 0.71 0.71 0.0 0 1 1012.30 181.16
  L 1062.39 212.04
  A 0.71 0.71 0.0 0 1 1062.15 213.34
  L 992.93 225.93
  A 0.71 0.71 0.0 0 1 992.15 224.95
  Z"
/>
<path fill="#ffffff" d="
  M 1188.23 298.45
  A 0.37 0.36 -19.8 0 0 1188.83 298.73
  C 1190.56 297.30 1191.43 295.46 1193.12 293.95
  Q 1200.19 287.66 1209.80 287.47
  Q 1217.19 287.31 1222.23 289.62
  C 1237.45 296.58 1238.49 316.66 1237.38 330.83
  C 1236.35 343.84 1229.64 358.82 1214.72 359.69
  C 1210.36 359.94 1205.41 359.93 1201.26 358.61
  Q 1194.60 356.50 1189.27 349.68
  Q 1188.16 348.25 1188.17 350.07
  L 1188.25 357.42
  Q 1188.26 358.86 1186.83 359.06
  L 1186.54 359.10
  A 2.01 2.01 0.0 0 1 1184.24 357.18
  Q 1183.97 349.52 1183.99 342.50
  Q 1184.08 302.14 1183.98 260.04
  Q 1183.98 259.59 1184.43 259.58
  L 1187.73 259.51
  Q 1188.22 259.50 1188.22 259.99
  L 1188.23 298.45
  Z
  M 1209.23 355.74
  C 1223.34 356.82 1231.51 345.16 1232.80 332.50
  Q 1233.95 321.15 1232.15 311.20
  C 1231.30 306.56 1228.98 301.99 1226.14 298.21
  C 1221.55 292.11 1214.11 291.42 1206.83 292.08
  Q 1201.10 292.61 1197.88 295.28
  C 1193.94 298.56 1190.36 302.69 1189.00 307.77
  Q 1188.22 310.73 1188.20 314.89
  Q 1188.15 327.26 1188.36 338.51
  Q 1188.46 344.02 1192.93 348.17
  Q 1200.34 355.05 1209.23 355.74
  Z"
/>
<path fill="#ffffff" d="
  M 1001.60 343.71
  Q 1008.53 344.49 1014.15 343.26
  C 1019.02 342.20 1022.97 338.89 1027.24 336.19
  C 1030.77 333.95 1036.07 341.29 1037.74 343.79
  C 1038.77 345.33 1038.03 346.84 1036.79 347.88
  C 1029.19 354.27 1020.68 358.99 1010.94 359.26
  Q 1004.82 359.43 998.69 359.22
  C 986.74 358.80 973.14 351.18 966.89 340.86
  Q 960.63 330.53 959.66 320.37
  C 957.73 300.07 961.72 282.92 979.52 270.97
  Q 990.70 263.46 1004.98 263.31
  C 1012.23 263.23 1019.66 263.58 1026.03 266.84
  Q 1033.48 270.64 1039.31 275.66
  A 0.55 0.55 0.0 0 1 1039.38 276.42
  L 1032.44 284.93
  Q 1030.26 287.60 1027.28 285.86
  Q 1024.85 284.45 1022.53 283.11
  C 1011.92 277.00 999.93 277.71 990.05 284.55
  C 978.42 292.60 976.04 308.26 978.77 321.17
  C 981.25 332.96 989.56 342.35 1001.60 343.71
  Z"
/>
<path fill="#ffffff" d="
  M 1054.23 354.75
  L 1100.28 354.75
  A 0.65 0.65 0.0 0 1 1100.93 355.40
  L 1100.88 358.29
  Q 1100.87 358.94 1100.22 358.94
  L 1049.95 358.93
  A 0.48 0.48 0.0 0 1 1049.47 358.45
  L 1049.48 265.18
  Q 1049.48 263.82 1050.83 264.00
  L 1052.16 264.18
  Q 1053.38 264.34 1053.42 265.58
  Q 1053.68 274.55 1053.69 283.40
  Q 1053.73 317.16 1053.71 354.24
  A 0.52 0.51 0.0 0 0 1054.23 354.75
  Z"
/>
<path fill="#ffffff" d="
  M 787.25 318.27
  L 787.24 342.72
  A 0.99 0.99 0.0 0 0 788.23 343.72
  L 826.52 343.70
  A 2.32 2.32 0.0 0 1 828.84 346.02
  L 828.84 358.46
  Q 828.84 359.00 828.29 359.00
  L 770.00 359.00
  A 0.50 0.50 0.0 0 1 769.50 358.50
  L 769.51 264.51
  A 0.23 0.23 0.0 0 1 769.74 264.28
  L 828.54 264.27
  Q 828.81 264.27 828.81 264.54
  L 828.88 278.23
  Q 828.88 278.59 828.52 278.59
  L 788.20 278.63
  A 0.92 0.92 0.0 0 0 787.28 279.55
  L 787.21 303.52
  Q 787.21 304.33 788.02 304.33
  L 819.48 304.28
  A 0.45 0.44 -90.0 0 1 819.92 304.73
  L 819.92 317.30
  A 0.47 0.47 0.0 0 1 819.45 317.77
  L 787.73 317.79
  A 0.48 0.48 0.0 0 0 787.25 318.27
  Z"
/>
<path fill="#ffffff" d="
  M 863.50 325.70
  A 2.25 2.25 0.0 0 0 861.28 327.95
  L 861.28 358.49
  Q 861.28 359.02 860.75 359.02
  L 843.95 358.99
  Q 843.42 358.99 843.42 358.45
  L 843.42 264.81
  Q 843.42 264.31 843.91 264.31
  C 855.47 264.23 868.48 263.77 881.26 264.66
  C 891.34 265.36 899.90 269.26 906.24 277.25
  C 910.07 282.08 910.80 290.35 910.59 296.26
  Q 909.84 317.02 890.61 323.28
  C 881.61 326.20 872.76 325.56 863.50 325.70
  Z
  M 861.27 279.25
  L 861.27 310.63
  A 0.62 0.62 0.0 0 0 861.89 311.25
  L 876.24 311.25
  A 16.67 15.48 -0.0 0 0 892.91 295.77
  L 892.91 294.11
  A 16.67 15.48 0.0 0 0 876.24 278.63
  L 861.89 278.63
  A 0.62 0.62 0.0 0 0 861.27 279.25
  Z"
/>
<rect fill="#ffffff" x="926.25" y="264.26" width="17.92" height="94.72" rx="0.36"/>
<path fill="#606060" d="
  M 861.27 279.25
  A 0.62 0.62 0.0 0 1 861.89 278.63
  L 876.24 278.63
  A 16.67 15.48 0.0 0 1 892.91 294.11
  L 892.91 295.77
  A 16.67 15.48 -0.0 0 1 876.24 311.25
  L 861.89 311.25
  A 0.62 0.62 0.0 0 1 861.27 310.63
  L 861.27 279.25
  Z"
/>
<path fill="#ffffff" d="
  M 1158.16 348.40
  A 0.58 0.57 58.0 0 0 1157.21 348.18
  C 1154.15 351.24 1151.71 354.53 1147.67 356.49
  C 1141.29 359.57 1134.22 360.10 1127.44 359.51
  C 1114.12 358.36 1107.09 347.10 1110.82 334.46
  C 1113.01 327.05 1121.93 321.92 1128.80 320.65
  C 1137.88 318.97 1147.75 319.03 1157.25 319.06
  A 0.87 0.87 0.0 0 0 1158.12 318.25
  C 1158.53 312.21 1158.76 303.56 1154.76 298.44
  Q 1150.46 292.94 1142.11 292.11
  C 1129.88 290.89 1118.80 294.08 1115.67 307.43
  A 1.65 1.64 82.9 0 1 1114.82 308.53
  Q 1113.48 309.24 1112.71 308.31
  Q 1112.27 307.79 1112.17 307.12
  C 1110.81 297.62 1122.00 290.00 1129.98 288.21
  C 1142.15 285.48 1160.06 289.31 1161.98 304.49
  Q 1162.61 309.52 1162.56 316.16
  Q 1162.43 333.55 1162.46 349.52
  Q 1162.47 351.54 1162.96 353.34
  Q 1163.44 355.08 1164.00 356.77
  A 1.83 1.82 84.3 0 1 1162.05 359.15
  C 1160.36 358.94 1158.87 358.20 1159.06 356.27
  Q 1159.47 352.15 1158.16 348.40
  Z
  M 1124.78 327.02
  C 1115.14 330.99 1109.80 342.10 1118.48 350.51
  C 1126.78 358.55 1140.64 356.66 1149.06 350.34
  C 1152.87 347.48 1155.85 344.63 1157.54 340.10
  Q 1158.46 337.61 1158.30 332.65
  Q 1158.15 328.23 1158.22 324.27
  Q 1158.24 323.33 1157.30 323.33
  C 1145.99 323.29 1135.15 322.74 1124.78 327.02
  Z"
/>
<path fill="#606060" d="
  M 1232.80 332.50
  C 1231.51 345.16 1223.34 356.82 1209.23 355.74
  Q 1200.34 355.05 1192.93 348.17
  Q 1188.46 344.02 1188.36 338.51
  Q 1188.15 327.26 1188.20 314.89
  Q 1188.22 310.73 1189.00 307.77
  C 1190.36 302.69 1193.94 298.56 1197.88 295.28
  Q 1201.10 292.61 1206.83 292.08
  C 1214.11 291.42 1221.55 292.11 1226.14 298.21
  C 1228.98 301.99 1231.30 306.56 1232.15 311.20
  Q 1233.95 321.15 1232.80 332.50
  Z"
/>
<path fill="#606060" d="
  M 1124.78 327.02
  C 1135.15 322.74 1145.99 323.29 1157.30 323.33
  Q 1158.24 323.33 1158.22 324.27
  Q 1158.15 328.23 1158.30 332.65
  Q 1158.46 337.61 1157.54 340.10
  C 1155.85 344.63 1152.87 347.48 1149.06 350.34
  C 1140.64 356.66 1126.78 358.55 1118.48 350.51
  C 1109.80 342.10 1115.14 330.99 1124.78 327.02
  Z"
/>
</svg>
